0
SECTION
2
HEADER
9
$INSUNITS
70
4
9
$ACADVER
1
AC1014
9
$HANDSEED
5
FFFF
0
ENDSEC
0
SECTION
2
TABLES
0
TABLE
2
VPORT
5
8
100
AcDbSymbolTable
0
ENDTAB
0
TABLE
2
LTYPE
5
5
100
AcDbSymbolTable
0
LTYPE
5
14
100
AcDbSymbolTableRecord
100
AcDbLinetypeTableRecord
2
BYBLOCK
70
0
0
LTYPE
5
15
100
AcDbSymbolTableRecord
100
AcDbLinetypeTableRecord
2
BYLAYER
70
0
0
ENDTAB
0
TABLE
2
LAYER
5
2
100
AcDbSymbolTable
70
2
0
LAYER
5
50
100
AcDbSymbolTableRecord
100
AcDbLayerTableRecord
2
0
70
0
6
CONTINUOUS
0
ENDTAB
0
TABLE
2
STYLE
5
3
100
AcDbSymbolTable
70
1
0
STYLE
5
11
100
AcDbSymbolTableRecord
100
AcDbTextStyleTableRecord
2
STANDARD
70
0
0
ENDTAB
0
TABLE
2
VIEW
5
6
100
AcDbSymbolTable
70
0
0
ENDTAB
0
TABLE
2
UCS
5
7
100
AcDbSymbolTable
70
0
0
ENDTAB
0
TABLE
2
APPID
5
9
100
AcDbSymbolTable
70
2
0
APPID
5
12
100
AcDbSymbolTableRecord
100
AcDbRegAppTableRecord
2
ACAD
70
0
0
ENDTAB
0
TABLE
2
DIMSTYLE
5
A
100
AcDbSymbolTable
70
1
0
ENDTAB
0
TABLE
2
BLOCK_RECORD
5
1
100
AcDbSymbolTable
70
1
0
BLOCK_RECORD
5
1F
100
AcDbSymbolTableRecord
100
AcDbBlockTableRecord
2
*MODEL_SPACE
0
BLOCK_RECORD
5
1B
100
AcDbSymbolTableRecord
100
AcDbBlockTableRecord
2
*PAPER_SPACE
0
ENDTAB
0
ENDSEC
0
SECTION
2
BLOCKS
0
BLOCK
5
20
100
AcDbEntity
100
AcDbBlockBegin
2
*MODEL_SPACE
0
ENDBLK
5
21
100
AcDbEntity
100
AcDbBlockEnd
0
BLOCK
5
1C
100
AcDbEntity
100
AcDbBlockBegin
2
*PAPER_SPACE
0
ENDBLK
5
1D
100
AcDbEntity
100
AcDbBlockEnd
0
ENDSEC
0
SECTION
2
ENTITIES
0
LWPOLYLINE
5
100
100
AcDbEntity
8
0
100
AcDbPolyline
90
35
70
1
43
0.0
10
-10.062729034387662
20
8.8718638530036671
10
-7.7412412378908986
20
10.956352857704008
10
-13.887811379956009
20
17.801765590963686
10
-6.9775952985586116
20
24.006523360318827
10
2.1819289220028475
20
22.472502069422138
10
0.6622935366398941
20
13.398874994456309
10
3.7394366316283034
20
12.883520385507127
10
5.2590720169912668
20
21.957147460472957
10
14.41859623755272
20
20.423126169576278
10
18.930120038951571
20
12.30547513880463
10
10.888595566251517
20
7.8362599778433415
10
12.404242446925345
20
5.1091342871015826
10
20.445766919625395
20
9.5783494480628644
10
24.957290721024265
20
1.4606984172912318
10
21.423544662493068
20
-7.127825557280393
10
12.915563047604195
20
-3.6272186326581721
10
11.728400699254042
20
-6.5125341368378731
10
20.236382314142915
20
-10.013141061460104
10
16.702636255611736
20
-18.601665036031726
10
7.7846031945074889
20
-21.193728227589371
10
5.2168481246379192
20
-12.359327630992041
10
2.2208340092701304
20
-13.230131524252149
10
4.7885890791396886
20
-22.064532120849478
10
-4.1294439819645365
20
-24.656595312407141
10
-11.716303255908386
20
-19.300321269254695
10
-6.4102598404889886
20
-11.784610838850627
10
-8.9590659864521029
20
-9.9851700284040437
10
-14.265109401871515
20
-17.500880458808112
10
-21.851968675815357
20
-12.144606415655685
10
-22.394594385593798
20
-2.8733787403656503
10
-13.21031140025687
20
-2.335841722802479
10
-13.392606562734812
20
0.77882815918134785
10
-22.57688954807174
20
0.2412911416181851
10
-23.119515257850164
20
9.5125188169081873
10
-16.209299176452781
20
15.717276586263345
0
ENDSEC
0
SECTION
2
OBJECTS
0
DICTIONARY
5
C
100
AcDbDictionary
3
ACAD_GROUP
350
D
3
ACAD_MLINESTYLE
350
17
0
DICTIONARY
5
D
100
AcDbDictionary
0
DICTIONARY
5
1A
330
C
100
AcDbDictionary
0
DICTIONARY
5
17
100
AcDbDictionary
0
ENDSEC
0
EOF
