0
SECTION
2
HEADER
9
$INSUNITS
70
4
9
$ACADVER
1
AC1014
9
$HANDSEED
5
FFFF
0
ENDSEC
0
SECTION
2
TABLES
0
TABLE
2
VPORT
5
8
100
AcDbSymbolTable
0
ENDTAB
0
TABLE
2
LTYPE
5
5
100
AcDbSymbolTable
0
LTYPE
5
14
100
AcDbSymbolTableRecord
100
AcDbLinetypeTableRecord
2
BYBLOCK
70
0
0
LTYPE
5
15
100
AcDbSymbolTableRecord
100
AcDbLinetypeTableRecord
2
BYLAYER
70
0
0
ENDTAB
0
TABLE
2
LAYER
5
2
100
AcDbSymbolTable
70
2
0
LAYER
5
50
100
AcDbSymbolTableRecord
100
AcDbLayerTableRecord
2
0
70
0
6
CONTINUOUS
0
ENDTAB
0
TABLE
2
STYLE
5
3
100
AcDbSymbolTable
70
1
0
STYLE
5
11
100
AcDbSymbolTableRecord
100
AcDbTextStyleTableRecord
2
STANDARD
70
0
0
ENDTAB
0
TABLE
2
VIEW
5
6
100
AcDbSymbolTable
70
0
0
ENDTAB
0
TABLE
2
UCS
5
7
100
AcDbSymbolTable
70
0
0
ENDTAB
0
TABLE
2
APPID
5
9
100
AcDbSymbolTable
70
2
0
APPID
5
12
100
AcDbSymbolTableRecord
100
AcDbRegAppTableRecord
2
ACAD
70
0
0
ENDTAB
0
TABLE
2
DIMSTYLE
5
A
100
AcDbSymbolTable
70
1
0
ENDTAB
0
TABLE
2
BLOCK_RECORD
5
1
100
AcDbSymbolTable
70
1
0
BLOCK_RECORD
5
1F
100
AcDbSymbolTableRecord
100
AcDbBlockTableRecord
2
*MODEL_SPACE
0
BLOCK_RECORD
5
1B
100
AcDbSymbolTableRecord
100
AcDbBlockTableRecord
2
*PAPER_SPACE
0
ENDTAB
0
ENDSEC
0
SECTION
2
BLOCKS
0
BLOCK
5
20
100
AcDbEntity
100
AcDbBlockBegin
2
*MODEL_SPACE
0
ENDBLK
5
21
100
AcDbEntity
100
AcDbBlockEnd
0
BLOCK
5
1C
100
AcDbEntity
100
AcDbBlockBegin
2
*PAPER_SPACE
0
ENDBLK
5
1D
100
AcDbEntity
100
AcDbBlockEnd
0
ENDSEC
0
SECTION
2
ENTITIES
0
LWPOLYLINE
5
100
100
AcDbEntity
8
0
100
AcDbPolyline
90
40
70
1
43
0.0
10
-10.950310270710242
20
8.6977347131757359
10
-8.7493528347058067
20
10.909111290083613
10
-15.27007863840851
20
17.399113985994116
10
-9.6215994549712942
20
23.074332578172157
10
-1.6145359697267154
20
23.093240195417685
10
-1.5928114518677159
20
13.893265845164102
10
1.5271798495226321
20
13.900633290351067
10
1.5054553316636377
20
23.100607640604643
10
9.5125188169082175
20
23.1195152578502
10
15.187737409086237
20
17.471036074412957
10
8.6977347131757359
20
10.950310270710242
10
10.909111290083613
20
8.7493528347058067
10
17.399113985994113
20
15.270078638408513
10
23.074332578172157
20
9.6215994549712995
10
23.093240195417678
20
1.6145359697267163
10
13.893265845164102
20
1.5928114518677172
10
13.90063329035107
20
-1.5271798495226303
10
23.100607640604636
20
-1.5054553316636377
10
23.119515257850196
20
-9.5125188169082069
10
17.471036074412957
20
-15.187737409086232
10
10.950310270710244
20
-8.6977347131757359
10
8.7493528347058085
20
-10.909111290083612
10
15.270078638408515
20
-17.399113985994113
10
9.621599454971296
20
-23.074332578172154
10
1.614535969726719
20
-23.093240195417678
10
1.592811451867719
20
-13.893265845164102
10
-1.5271798495226296
20
-13.900633290351067
10
-1.5054553316636365
20
-23.100607640604643
10
-9.5125188169082051
20
-23.119515257850196
10
-15.187737409086232
20
-17.471036074412957
10
-8.6977347131757359
20
-10.950310270710244
10
-10.909111290083612
20
-8.7493528347058085
10
-17.399113985994113
20
-15.270078638408515
10
-23.074332578172154
20
-9.6215994549713013
10
-23.093240195417678
20
-1.6145359697267214
10
-13.893265845164102
20
-1.5928114518677194
10
-13.900633290351067
20
1.5271798495226281
10
-23.100607640604643
20
1.5054553316636332
10
-23.119515257850164
20
9.5125188169081873
10
-17.471036074412957
20
15.187737409086237
0
ENDSEC
0
SECTION
2
OBJECTS
0
DICTIONARY
5
C
100
AcDbDictionary
3
ACAD_GROUP
350
D
3
ACAD_MLINESTYLE
350
17
0
DICTIONARY
5
D
100
AcDbDictionary
0
DICTIONARY
5
1A
330
C
100
AcDbDictionary
0
DICTIONARY
5
17
100
AcDbDictionary
0
ENDSEC
0
EOF
